{"title":"Take.Me.Home.2012.FRENCH.DVDRiP.XViD.ElConstantinois","uid":7642445,"size":734427136,"categoryP":"video","categoryS":"movies","magnet":"?xt=urn:btih:de973f96e38a9696c12a7b2b9b287dfc39bf1898&amp;dn=Take.Me.Home.2012.FRENCH.DVDRiP.XViD.ElConstantinois&amp;tr=udp%3A%2F%2Ftracker.openbittorrent.com%3A80&amp;tr=udp%3A%2F%2Fopen.demonii.com%3A1337&amp;tr=udp%3A%2F%2Ftracker.coppersurfer.tk%3A6969&amp;tr=udp%3A%2F%2Fexodus.desync.com%3A6969","seeders":1,"leechers":0,"uploader":"ElConstantinois","files":1,"time":1347814017,"description":"Video\nID : 0\nFormat : MPEG-4 Visual\n\nCodec ID : XVID\nCodec ID/Hint : XviD\nDuration : 1h 32mn\nBit rate : 943 Kbps\nWidth : 640 pixels\nHeight : 272 pixels\n\nStream size : 626 MiB (89%)\nWriting library : XviD 1.1.2 (UTC 2006-11-01)\n\nAudio\nID : 1\nFormat : MPEG Audio\n\nCodec ID/Hint : MP3\nDuration : 1h 32mn\n\nBit rate : 99.9 Kbps\nChannel(s) : 2 channels\nSampling rate : 48.0 KHz\nCompression mode : Lossy\nStream size : 66.3 MiB (9%)\nAlignment : Aligned on interleaves\nInterleave, duration : 24 ms (0.60 video frame)\nInterleave, preload duration : 169 ms\n\n\n\nGalek fi khater ness el hit &amp; run\n","torrent":{"xt":"urn:btih:de973f96e38a9696c12a7b2b9b287dfc39bf1898","amp;dn":"Take.Me.Home.2012.FRENCH.DVDRiP.XViD.ElConstantinois","amp;tr":["udp%3A%2F%2Ftracker.openbittorrent.com%3A80","udp%3A%2F%2Fopen.demonii.com%3A1337","udp%3A%2F%2Ftracker.coppersurfer.tk%3A6969","udp%3A%2F%2Fexodus.desync.com%3A6969"],"infoHash":"de973f96e38a9696c12a7b2b9b287dfc39bf1898","infoHashBuffer":{"type":"Buffer","data":[222,151,63,150,227,138,150,150,193,42,123,43,155,40,125,252,57,191,24,152]},"announce":[],"urlList":[]}}